<?xml version="1.0" encoding="utf-8"?>
<!-- Generator: Adobe Illustrator 26.2.1, SVG Export Plug-In . SVG Version: 6.00 Build 0)  -->
<svg version="1.1" id="Layer_1" xmlns="http://www.w3.org/2000/svg" xmlns:xlink="http://www.w3.org/1999/xlink" x="0px" y="0px"
	 viewBox="0 0 24 19.5" style="enable-background:new 0 0 24 19.5;" xml:space="preserve">
<style type="text/css">
	.st0{fill:#FF0000;}
</style>
<g id="Layer_2_00000083779006059095654410000004557912049811502738_">
	<g id="Layer_1-2">
		<path id="iconmonstr-twitter-1" class="st0" d="M24,2.3c-0.9,0.4-1.9,0.7-2.8,0.8c1-0.6,1.8-1.6,2.2-2.7c-1,0.6-2,1-3.1,1.2
			c-1.8-2-5-2.1-7-0.3c-1.3,1.2-1.8,3-1.4,4.7c-4-0.2-7.7-2-10.2-5.1C0.4,3.2,1,6,3.2,7.5C2.4,7.4,1.7,7.2,1,6.9
			c0,2.4,1.7,4.4,4,4.9c-0.7,0.2-1.5,0.2-2.2,0c0.6,2,2.5,3.4,4.6,3.4c-2.1,1.6-4.7,2.4-7.4,2c2.3,1.4,4.9,2.2,7.6,2.2
			c7.7,0,14-6.2,14-13.8c0-0.3,0-0.5,0-0.8C22.5,4.2,23.3,3.3,24,2.3z"/>
	</g>
</g>
</svg>
