<?xml version="1.0" encoding="utf-8"?>
<!-- Generator: Adobe Illustrator 26.2.1, SVG Export Plug-In . SVG Version: 6.00 Build 0)  -->
<svg version="1.1" xmlns="http://www.w3.org/2000/svg" xmlns:xlink="http://www.w3.org/1999/xlink" x="0px" y="0px"
	 viewBox="0 0 676.4 599.8" style="enable-background:new 0 0 676.4 599.8;" xml:space="preserve">
<style type="text/css">
	.st0{display:none;fill:#F7931E;}
	.st1{fill:#F7931E;}
</style>
<g id="レイヤー_1">
</g>
<g id="レイヤー_2">
	<path class="st0" d="M810.6-1156l-37.3,25.6c59.5,19.5,102.5,75.5,102.5,141.5c0,82.2-66.6,148.8-148.8,148.8
		c-10.5,0-20.8-1.1-30.7-3.2c-7.1,11.7-15.3,22.7-24.4,32.9c17.4,5.4,35.9,8.3,55.1,8.3c103.2,0,186.8-83.6,186.8-186.8
		C913.8-1062.1,871.8-1125.3,810.6-1156z"/>
	<g>
		<polygon class="st1" points="408.5,159.8 384.8,153.9 390.9,177.1 		"/>
		<polygon class="st1" points="437.1,167.4 413.3,161.4 419.5,184.6 		"/>
		<polygon class="st1" points="416.8,186 410,162.5 393.1,179.5 		"/>
		<polygon class="st1" points="444.9,193.8 438,170.3 421.1,187.3 		"/>
		<polygon class="st1" points="381.8,154.7 364.9,171.7 388.7,178.2 		"/>
		<path class="st1" d="M386.5,231.2c-0.1,0-0.1,0-0.2,0l0.1,0.3L386.5,231.2z"/>
		<path class="st1" d="M388.5,225.3c0,0,0.1,0,0.1,0l0.2-16.6l0.3-27.2l-24.3-6.7l15.5,33.2L388.5,225.3z"/>
		<path class="st1" d="M413.3,216.4l29.6-20.3l-24.4-6.5l-13.3,23.3l-8.3,14.5c0.1,0,0.2,0.1,0.3,0.1L413.3,216.4z"/>
		<polygon class="st1" points="392.1,182.2 394.5,209.7 395.2,217.4 399.7,211 415.9,188.8 		"/>
		<path class="st1" d="M321.9,381.1c-14.7,12.1-33.5,19.3-54,19.3c-47,0-85-38.1-85-85c0-4.4,0.3-8.7,1-12.8c6.3-40.8,41.5-72,84-72
			c47,0,85,38.1,85,85c0,8.8-1.3,17.3-3.8,25.3c0,0,0,0,0,0c-2,6.5-4.8,12.6-8.2,18.4c6.5,3.3,13.3,5.9,20.5,7.9
			c8.5-15.3,13.3-32.9,13.3-51.6c0-30.7-12.9-58.3-33.6-77.7c0,0,0,0,0,0c-4.8-4.5-10-8.6-15.5-12.1c0,0,0.1-0.1,0.1-0.1
			c-16.6-10.7-36.4-16.9-57.6-16.9c-53.4,0-97.7,39.3-105.5,90.6c-0.8,5.3-1.2,10.8-1.2,16.3c0,58.9,47.8,106.7,106.7,106.7
			c16.8,0,32.8-3.9,46.9-10.9c0,0-0.1-0.1-0.1-0.1c10.6-5.2,20.2-12.1,28.5-20.3C335.8,388.3,328.7,384.9,321.9,381.1z"/>
		<path class="st1" d="M373.7,230.1c4.3,0,8.5,0.4,12.7,1.1l-9-19.2c-1.2,0-2.4-0.1-3.6-0.1c-15.7,0-30.4,4-43.2,11.1
			c5.5,3.8,10.8,8,15.8,12.5C354.8,232,364,230.1,373.7,230.1z"/>
		<path class="st1" d="M461,282.3C461,282.3,460.9,282.3,461,282.3c-5.9-26.7-23.6-49-47.5-61l-17.8,12.2c0,0-0.1,0-0.1,0l-0.3,0.5
			l0.5-0.3c28.4,9.4,48.9,36.2,48.9,67.7c0,39.4-31.9,71.3-71.3,71.3c-5,0-10-0.5-14.7-1.5c0,0,0,0,0,0c-7.3-1.5-14.3-4.2-20.6-7.8
			c0,0,0,0,0,0c-21.5-12.3-35.9-35.4-35.9-61.9c0-8.5,1.5-16.6,4.2-24.1c3-8.3,7.5-15.9,13.1-22.4c-4.7-3.8-9.8-7.3-15-10.4
			c-7.7,9.3-13.6,20.3-17,32.2c-1,3.6-1.8,7.3-2.4,11c0,0,0,0,0,0c-0.7,4.5-1.1,9.1-1.1,13.8c0,49.4,40.1,89.5,89.5,89.5
			c49.4,0,89.5-40.1,89.5-89.5C463,294.9,462.3,288.5,461,282.3z"/>
	</g>
	<path class="st0" d="M2294.8-1156l-37.3,25.6C2317-1110.9,2360-1055,2360-989c0,82.2-66.6,148.8-148.8,148.8
		c-10.5,0-20.8-1.1-30.7-3.2c-7.1,11.7-15.3,22.7-24.4,32.9c17.4,5.4,35.9,8.3,55.1,8.3c103.2,0,186.8-83.6,186.8-186.8
		C2398-1062.1,2356-1125.3,2294.8-1156z"/>
</g>
<g id="レイヤー_3">
</g>
</svg>
